<?xml version="1.0" standalone="no"?>
<!DOCTYPE svg PUBLIC "-//W3C//DTD SVG 20010904//EN"
 "http://www.w3.org/TR/2001/REC-SVG-20010904/DTD/svg10.dtd">
<svg version="1.0" xmlns="http://www.w3.org/2000/svg"
 width="680.000000pt" height="449.000000pt" viewBox="0 0 680.000000 449.000000"
 preserveAspectRatio="xMidYMid meet">

<g transform="translate(0.000000,449.000000) scale(0.100000,-0.100000)"
fill="#000000" stroke="none">
<path d="M1020 4156 c-75 -16 -105 -39 -134 -99 l-24 -52 -4 -1805 c-2 -1466
-1 -1812 10 -1842 19 -54 79 -104 141 -117 36 -7 296 -11 820 -11 l767 0 50
25 c57 29 89 71 104 139 15 69 16 3567 0 3625 -13 50 -60 106 -109 129 -33 15
-104 17 -801 19 -571 1 -779 -1 -820 -11z m642 -292 c-19 -13 -22 -24 -22 -79
0 -35 -4 -66 -9 -70 -11 -6 -6 -57 8 -84 14 -26 14 -34 -1 -25 -7 5 -8 3 -3
-6 4 -7 9 -28 11 -47 2 -28 0 -33 -14 -28 -14 5 -14 4 0 -12 8 -10 14 -28 12
-40 -2 -13 1 -23 6 -23 6 0 10 -14 10 -31 0 -17 -4 -28 -10 -24 -5 3 -7 12 -4
19 3 8 1 17 -5 21 -14 8 -14 -20 -1 -45 13 -25 -17 -32 -95 -21 -83 12 -226
-4 -267 -29 -41 -25 -74 -26 -80 -2 -11 39 -9 154 3 168 9 11 8 14 -5 14 -12
0 -16 10 -16 39 0 22 4 41 10 43 6 2 6 27 0 68 -5 36 -10 98 -10 138 l0 72
252 0 c231 0 251 -1 230 -16z m758 7 c0 -15 -15 -21 -38 -14 -32 8 -27 23 8
23 17 0 30 -4 30 -9z m-34 -67 c-3 -8 -15 -14 -26 -14 -22 0 -27 15 -7 23 9 4
8 8 -3 17 -13 10 -13 11 2 6 10 -3 21 0 25 7 9 15 17 -17 9 -39z m64 16 c0
-20 -5 -30 -15 -30 -18 0 -30 24 -21 45 10 28 36 17 36 -15z m60 0 c0 -11 -6
-20 -14 -20 -12 0 -14 14 -7 38 1 1 6 2 11 2 6 0 10 -9 10 -20z m78 -3 c-3
-21 -44 -32 -54 -15 -11 17 4 33 30 34 22 2 27 -2 24 -19z m-1593 -197 c10
-11 25 -20 33 -20 18 0 41 -29 42 -52 0 -19 -29 -38 -57 -38 -15 0 -16 2 -3
10 11 7 12 10 2 10 -8 0 -22 -10 -33 -22 -18 -23 -18 -23 -19 55 0 42 4 77 8
77 5 0 17 -9 27 -20z m1365 -25 c6 4 24 1 41 -5 23 -10 32 -10 44 0 11 9 19 9
28 2 7 -6 18 -7 26 -3 15 10 53 2 63 -12 4 -7 12 -6 23 3 14 12 18 12 26 -1 5
-8 9 -20 9 -26 0 -16 -26 -17 -36 -1 -5 7 -10 4 -16 -11 -6 -18 -13 -22 -32
-17 -14 3 -28 1 -31 -4 -4 -6 -16 -8 -26 -5 -11 4 -26 1 -34 -5 -11 -9 -16 -5
-24 22 -7 25 -9 28 -10 11 -1 -27 -21 -31 -22 -5 0 10 -3 12 -6 5 -6 -16 -39
-17 -49 -2 -4 8 -9 7 -15 -2 -7 -11 -9 -10 -9 4 0 9 -4 17 -10 17 -5 0 -10 -7
-10 -15 0 -23 -15 -18 -29 9 -15 27 -8 46 15 46 8 0 12 -4 9 -10 -10 -16 11
-12 25 5 9 11 16 12 26 4 7 -6 18 -8 24 -4z m-650 -46 c0 -27 -20 -24 -21 4
l-2 22 -4 -22 c-7 -36 -23 -27 -23 12 l0 35 25 -16 c14 -9 25 -25 25 -35z
m457 13 c3 -35 -19 -54 -40 -33 -8 8 -7 11 4 11 8 0 15 9 15 20 0 11 -6 20
-14 20 -7 0 -10 5 -7 11 14 21 39 4 42 -29z m69 12 c9 -35 -18 -63 -40 -44
-19 15 -21 41 -4 58 19 19 37 14 44 -14z m-424 -11 c9 -22 12 -24 15 -10 7 26
43 22 42 -5 -1 -17 -2 -19 -6 -5 -5 20 -23 23 -23 3 0 -9 -12 -13 -39 -12
l-39 1 14 27 c18 35 22 35 36 1z m276 -11 c2 -12 -2 -22 -8 -22 -6 0 -10 6 -8
14 2 8 -1 14 -7 13 -5 -1 -9 -8 -9 -14 1 -7 -2 -13 -7 -13 -11 0 -12 34 -2 44
14 13 38 1 41 -22z m-169 -4 c-1 -17 -2 -19 -6 -5 -2 9 -8 17 -13 17 -5 0 -11
-8 -13 -17 -4 -14 -5 -12 -6 5 -1 16 5 22 19 22 14 0 20 -6 19 -22z m51 2 c0
-11 -4 -20 -10 -20 -5 0 -13 0 -17 0 -5 0 -9 9 -9 20 -1 13 5 20 17 20 12 0
19 -7 19 -20z m57 -12 c-3 -7 -5 -2 -5 12 0 14 2 19 5 13 2 -7 2 -19 0 -25z
m-320 -104 c3 -8 -1 -23 -10 -32 -15 -14 -17 -14 -23 1 -8 21 1 47 16 47 6 0
13 -7 17 -16z m55 -4 c17 -26 32 -26 25 1 -4 16 -3 19 5 11 15 -15 1 -45 -17
-38 -8 3 -17 0 -21 -6 -10 -15 -34 20 -27 38 7 20 21 17 35 -6z m302 14 c25
-9 19 -24 -9 -24 -16 0 -25 6 -25 15 0 16 9 19 34 9z m85 -1 c-4 -22 2 -25 14
-8 11 14 16 15 22 5 5 -9 4 -11 -3 -6 -7 4 -12 1 -12 -9 0 -9 5 -13 10 -10 6
3 10 1 10 -5 0 -7 -7 -9 -16 -6 -9 4 -24 1 -32 -6 -13 -11 -15 -10 -9 4 3 10
2 20 -4 23 -5 4 -7 11 -4 16 7 11 26 12 24 2z m66 -3 c3 -5 1 -10 -4 -10 -6 0
-11 5 -11 10 0 6 2 10 4 10 3 0 8 -4 11 -10z m27 -15 c-2 -14 -6 -25 -8 -25
-2 0 -4 11 -4 25 0 14 4 25 9 25 4 0 6 -11 3 -25z m-405 -17 c2 -18 0 -20 -7
-8 -12 18 -13 30 -2 30 4 0 9 -10 9 -22z m76 15 c3 -5 -10 -8 -28 -9 -19 0
-32 3 -29 8 6 10 51 11 57 1z m-933 -48 c0 -14 5 -44 11 -67 8 -31 8 -51 0
-70 -21 -54 -31 -30 -31 73 0 64 4 98 10 94 6 -3 10 -17 10 -30z m348 -174
c31 -16 70 -34 86 -41 25 -9 28 -14 23 -48 -3 -24 2 -50 15 -76 21 -41 21
-106 0 -256 -15 -103 -62 -218 -109 -262 -20 -19 -26 -20 -34 -8 -5 8 -8 28
-6 45 2 16 -6 76 -19 133 -13 58 -24 124 -24 147 0 23 -7 62 -16 86 -19 53
-35 278 -21 297 15 19 44 14 105 -17z m322 -26 c0 -8 -4 -15 -10 -15 -5 0 -7
7 -4 15 4 8 8 15 10 15 2 0 4 -7 4 -15z m862 -272 c28 -32 31 -60 9 -82 -38
-38 -111 -15 -111 35 0 52 69 84 102 47z m-384 -259 c12 -8 22 -19 22 -25 0
-20 -33 -59 -49 -59 -10 0 -28 -11 -41 -25 -14 -14 -30 -23 -39 -20 -7 3 -23
-4 -33 -15 -31 -33 -88 -19 -88 23 0 20 -5 22 -60 23 -88 1 -125 42 -82 93 15
18 30 21 122 24 139 5 220 -2 248 -19z m44 -6 c-9 -9 -15 -9 -24 0 -9 9 -7 12
12 12 19 0 21 -3 12 -12z m74 4 c7 -4 12 -19 12 -34 0 -24 -3 -26 -19 -17 -13
6 -19 6 -19 -1 0 -5 5 -10 10 -10 8 0 8 -6 1 -17 -6 -12 -22 -18 -50 -18 -36
0 -41 2 -41 21 0 12 7 25 16 28 9 4 14 9 10 13 -3 3 1 15 11 25 17 18 49 23
69 10z m403 -116 c0 -22 2 -56 5 -73 3 -18 1 -33 -4 -33 -6 0 -10 4 -10 9 0 6
-12 3 -27 -5 -42 -21 -60 -17 -101 21 l-37 35 25 21 c14 12 24 30 22 40 -2 14
5 19 35 24 21 4 43 8 48 9 31 8 45 -7 44 -48z m-1581 8 c7 -2 12 -14 10 -26
-2 -19 -10 -24 -45 -26 -45 -3 -49 1 -37 45 6 23 19 24 72 7z m1033 -44 c10
-26 16 -30 49 -30 55 0 85 -39 75 -95 -15 -84 -4 -122 30 -108 7 2 19 -2 27
-11 10 -9 20 -11 29 -5 8 5 23 9 35 9 23 0 91 56 81 67 -4 4 -14 -2 -22 -14
-8 -11 -26 -20 -43 -21 -23 0 -32 7 -48 35 -10 20 -18 39 -17 42 1 3 -5 13
-13 22 -12 13 -12 18 1 35 8 10 15 27 15 37 0 9 7 17 15 17 8 0 24 9 35 20 26
26 76 26 90 1 14 -27 13 -56 -3 -70 -8 -6 -14 -24 -15 -41 l-1 -30 32 16 c27
15 39 15 101 4 103 -19 124 -41 59 -60 -55 -17 -82 -43 -85 -81 -3 -34 -2 -34
42 -37 24 -2 50 -8 57 -14 16 -13 18 -134 3 -143 -6 -4 -10 -12 -9 -18 1 -7 1
-25 0 -41 -1 -29 -1 -29 -20 -10 -16 17 -16 20 -2 26 10 4 4 7 -17 7 -28 1
-32 4 -27 20 3 10 -1 24 -10 31 -13 11 -15 6 -15 -35 0 -26 7 -62 16 -80 14
-31 14 -36 -2 -71 -16 -34 -16 -37 -1 -49 21 -15 22 -29 2 -21 -13 4 -16 -2
-15 -32 1 -75 -4 -87 -41 -93 -29 -5 -30 -7 -8 -8 18 -1 28 -8 32 -22 5 -17 1
-20 -26 -17 -22 2 -36 12 -48 33 -22 38 -23 46 -4 39 8 -4 15 -1 15 5 0 6 -7
11 -15 11 -21 0 -19 12 5 38 12 12 16 22 10 22 -6 0 -13 -7 -16 -15 -19 -49
-27 47 -9 104 5 18 4 22 -6 16 -11 -6 -11 -5 -2 5 13 14 7 66 -10 87 -6 9 -5
20 5 36 10 13 13 35 10 56 -4 29 -2 33 12 28 9 -4 16 -2 16 3 0 14 -18 21 -25
10 -5 -8 -11 -8 -21 1 -11 9 -11 16 1 44 14 34 14 34 -11 25 -19 -8 -26 -6
-30 5 -3 8 -22 17 -42 21 -21 4 -41 10 -47 14 -19 14 -57 19 -80 10 -15 -6
-31 -4 -49 5 -14 8 -26 10 -26 4 0 -5 -3 -8 -7 -7 -5 1 -26 -4 -48 -10 -21 -6
-42 -8 -45 -3 -7 11 -130 14 -130 3 0 -6 -11 -13 -25 -16 -17 -4 -31 0 -45 14
-12 12 -33 20 -54 20 l-34 0 5 44 c4 35 1 51 -17 76 -19 26 -21 36 -11 56 6
13 15 24 21 24 5 0 10 6 10 14 0 17 35 31 51 20 6 -3 9 -17 6 -30 -5 -29 -3
-30 23 -4 24 24 57 26 88 5 19 -14 25 -14 54 1 17 9 46 32 63 50 40 42 63 43
76 4z m-611 -80 c8 -5 11 -12 7 -16 -4 -4 -15 0 -24 9 -18 18 -8 23 17 7z
m-282 -67 c4 -39 -24 -58 -76 -49 -22 3 -42 1 -50 -7 -12 -9 -16 -9 -19 1 -3
6 -9 12 -14 12 -4 0 -6 -6 -3 -13 3 -8 -4 -13 -17 -14 -13 -1 -19 3 -16 11 4
9 -3 13 -21 12 -23 -1 -27 4 -30 30 -3 27 0 30 20 29 13 -1 28 1 33 5 16 12
44 16 120 15 l70 0 3 -32z m142 -8 c16 -43 -10 -75 -62 -75 -32 0 -48 18 -48
52 0 31 23 46 73 47 20 1 30 -5 37 -24z m-150 -65 c0 -5 -4 -10 -10 -10 -5 0
-10 5 -10 10 0 6 5 10 10 10 6 0 10 -4 10 -10z m189 -29 c12 -8 12 -12 -2 -25
-9 -9 -14 -23 -11 -30 3 -8 -3 -20 -14 -27 -10 -8 -23 -23 -29 -34 -10 -17
-12 -16 -18 17 -14 76 26 129 74 99z m36 -108 c3 -27 9 -60 14 -75 5 -16 5
-28 -1 -30 -6 -2 -5 -13 1 -28 5 -14 10 -18 11 -10 0 13 1 13 10 0 7 -11 4
-17 -11 -22 -25 -10 -14 -32 12 -25 16 4 17 2 7 -16 -13 -25 -15 -57 -5 -74 8
-12 3 -65 -7 -82 -4 -6 0 -11 10 -11 13 0 14 -3 4 -15 -6 -8 -9 -18 -6 -24 4
-5 -13 -9 -40 -8 -44 0 -45 1 -23 14 23 13 22 13 -16 9 -22 -3 -31 -3 -20 0
11 4 25 11 32 16 7 5 16 7 22 4 5 -4 11 2 13 11 2 12 -6 22 -22 30 -25 11 -25
11 10 13 21 2 27 4 16 7 -15 4 -16 7 -5 14 12 7 11 9 -2 9 -12 0 -15 9 -12 40
2 27 -1 40 -10 40 -8 0 -8 3 2 9 12 8 12 12 2 25 -8 9 -10 26 -6 45 4 17 3 36
-2 43 -4 7 -9 28 -10 46 -1 19 -7 40 -14 48 -10 12 -8 18 7 29 29 22 32 19 39
-32z m772 -125 c16 -18 4 -32 -21 -22 -17 7 -20 22 -9 50 5 14 8 15 11 3 3 -7
11 -21 19 -31z m170 -50 c-3 -8 -6 -5 -6 6 -1 11 2 17 5 13 3 -3 4 -12 1 -19z
m-1057 -54 c0 -11 -5 -14 -16 -10 -9 3 -18 6 -20 6 -3 0 -2 5 1 10 10 16 35
12 35 -6z m1090 -4 c0 -5 -9 -10 -20 -10 -11 0 -20 5 -20 10 0 6 9 10 20 10
11 0 20 -4 20 -10z m-219 -33 c-13 -13 -26 -3 -16 12 3 6 11 8 17 5 6 -4 6
-10 -1 -17z m209 -17 c0 -5 -4 -10 -10 -10 -5 0 -10 5 -10 10 0 6 5 10 10 10
6 0 10 -4 10 -10z m-55 -49 c10 -17 -12 -21 -25 -6 -10 12 -10 15 3 15 9 0 18
-4 22 -9z m-992 -38 c-7 -2 -21 -2 -30 0 -10 3 -4 5 12 5 17 0 24 -2 18 -5z
m858 -28 c0 -13 -41 -19 -41 -7 0 11 20 22 33 18 5 -1 8 -6 8 -11z m-771 -44
c0 -5 11 -12 24 -15 31 -8 41 -35 19 -51 -15 -12 -14 -12 11 -8 36 7 27 -13
-12 -29 -25 -10 -26 -11 -7 -18 11 -5 14 -9 7 -9 -8 -1 -11 -8 -8 -18 3 -10 1
-25 -4 -33 -5 -8 -10 -10 -10 -5 0 6 -21 11 -46 12 -47 2 -84 24 -84 50 0 7
-5 13 -11 13 -6 0 -9 6 -6 13 2 6 11 11 21 9 9 -2 16 2 16 8 0 10 -21 14 -49
11 -7 -2 -10 2 -6 8 3 6 13 11 22 11 9 0 13 6 9 15 -4 11 2 15 25 15 17 0 28
4 24 9 -5 9 14 15 53 20 6 0 12 -3 12 -8z m723 -18 c-7 -2 -19 -2 -25 0 -7 3
-2 5 12 5 14 0 19 -2 13 -5z m-266 -29 c-3 -3 -12 -4 -19 -1 -8 3 -5 6 6 6 11
1 17 -2 13 -5z m63 -4 c0 -5 -5 -10 -11 -10 -5 0 -7 5 -4 10 3 6 8 10 11 10 2
0 4 -4 4 -10z m315 0 c3 -5 -1 -10 -9 -10 -8 0 -18 5 -21 10 -3 6 1 10 9 10 8
0 18 -4 21 -10z m212 -46 c-3 -3 -12 -4 -19 -1 -8 3 -5 6 6 6 11 1 17 -2 13
-5z m-60 -30 c-3 -3 -12 -4 -19 -1 -8 3 -5 6 6 6 11 1 17 -2 13 -5z m150 0
c-3 -3 -12 -4 -19 -1 -8 3 -5 6 6 6 11 1 17 -2 13 -5z m-110 -10 c-3 -3 -12
-4 -19 -1 -8 3 -5 6 6 6 11 1 17 -2 13 -5z m63 -14 c0 -5 -2 -10 -4 -10 -3 0
-8 5 -11 10 -3 6 -1 10 4 10 6 0 11 -4 11 -10z m-1162 -35 c15 -2 32 -4 37 -4
6 -1 3 -6 -5 -11 -13 -8 -13 -10 2 -10 9 0 20 5 23 10 10 16 23 12 30 -10 5
-16 12 -19 28 -14 21 6 21 6 2 -12 -13 -14 -38 -20 -86 -24 -44 -3 -65 -2 -59
4 15 15 12 23 -10 29 -11 3 -20 10 -20 16 0 8 6 7 20 -1 15 -10 22 -10 31 -1
10 10 9 13 -2 17 -58 21 -69 27 -69 37 0 7 10 5 26 -6 14 -9 38 -18 52 -20z
m1072 31 c0 -3 -4 -8 -10 -11 -5 -3 -10 -1 -10 4 0 6 5 11 10 11 6 0 10 -2 10
-4z m40 -6 c0 -5 -4 -10 -10 -10 -5 0 -10 5 -10 10 0 6 5 10 10 10 6 0 10 -4
10 -10z m-507 -37 c-7 -2 -21 -2 -30 0 -10 3 -4 5 12 5 17 0 24 -2 18 -5z
m484 -9 c-3 -3 -12 -4 -19 -1 -8 3 -5 6 6 6 11 1 17 -2 13 -5z m86 -11 c-7 -2
-19 -2 -25 0 -7 3 -2 5 12 5 14 0 19 -2 13 -5z m-996 -19 c-3 -3 -12 -4 -19
-1 -8 3 -5 6 6 6 11 1 17 -2 13 -5z m-53 -69 c20 -8 36 -20 36 -25 0 -15 -26
-12 -40 5 -7 8 -21 15 -32 15 -10 0 -16 5 -13 10 8 13 6 13 49 -5z m-147 -1
c-3 -3 -12 -4 -19 -1 -8 3 -5 6 6 6 11 1 17 -2 13 -5z m60 0 c-3 -3 -12 -4
-19 -1 -8 3 -5 6 6 6 11 1 17 -2 13 -5z m-8 -25 c9 5 27 5 40 0 28 -11 26 -16
-9 -21 -14 -1 -28 -7 -32 -13 -4 -6 -13 -2 -21 9 -9 12 -20 17 -31 13 -9 -4
-16 -2 -16 3 0 12 33 18 44 9 5 -5 16 -4 25 0z m851 -49 c0 -5 -5 -10 -11 -10
-5 0 -7 5 -4 10 3 6 8 10 11 10 2 0 4 -4 4 -10z m-413 -26 c2 -5 -6 -10 -17
-10 -20 0 -25 7 -13 20 9 8 26 3 30 -10z m-409 -69 c4 -3 -5 -4 -19 0 -19 5
-28 2 -32 -9 -7 -18 -27 -22 -27 -5 0 5 6 7 13 4 6 -4 4 0 -5 8 -10 8 -18 16
-18 19 0 7 79 -8 88 -17z m-189 -89 c56 -30 67 -106 22 -155 -40 -43 -97 -44
-143 -2 -28 25 -33 36 -32 72 2 78 81 122 153 85z m289 8 l23 -7 -23 -11 c-23
-11 -38 -56 -19 -56 5 0 15 -15 22 -34 l12 -34 19 36 c10 20 18 43 18 51 0 32
22 -8 23 -41 1 -33 -28 -87 -47 -88 -6 0 -22 12 -38 27 l-28 27 -24 -23 c-14
-13 -29 -20 -35 -17 -16 10 -36 86 -25 94 5 4 10 14 12 22 10 43 59 67 110 54z
m346 -9 c54 -35 58 -126 9 -165 -67 -53 -168 -4 -168 81 0 77 94 126 159 84z
m632 -3 c53 -42 59 -109 15 -153 -39 -39 -96 -40 -140 -3 -26 22 -31 33 -31
71 0 36 6 50 29 74 35 34 93 39 127 11z m-281 -42 c25 -40 -9 -117 -58 -134
-35 -13 -45 -1 -22 24 11 12 13 20 6 20 -6 0 -16 -11 -22 -24 -23 -50 -89 7
-89 77 0 34 2 38 15 27 8 -7 15 -22 15 -33 0 -22 27 -57 44 -57 6 0 0 7 -12
16 -26 18 -28 41 -6 72 12 18 25 22 69 22 30 0 57 -5 60 -10z m300 -254 c32
-32 40 -69 25 -107 -26 -61 -4 -59 -740 -59 l-672 0 -29 29 c-21 22 -29 39
-29 66 0 27 8 44 29 66 l29 29 682 0 681 0 24 -24z m-1155 -271 c0 -28 -3 -29
-31 -14 -20 10 -20 11 -2 24 26 20 33 18 33 -10z m470 10 c15 -18 5 -35 -20
-35 -22 0 -34 15 -26 35 7 19 30 19 46 0z m478 -12 c3 -19 -1 -23 -22 -23 -21
0 -26 5 -26 26 0 21 4 25 23 22 14 -2 23 -11 25 -25z"/>
<path d="M1610 3564 c0 -14 4 -23 9 -20 5 3 7 15 4 26 -7 28 -13 25 -13 -6z"/>
<path d="M1190 3573 c0 -5 4 -14 9 -21 6 -10 10 -9 14 7 3 14 0 21 -9 21 -8 0
-14 -3 -14 -7z"/>
<path d="M1550 3531 c0 -6 4 -13 10 -16 6 -3 7 1 4 9 -7 18 -14 21 -14 7z"/>
<path d="M2200 3560 c0 -11 5 -20 10 -20 6 0 10 9 10 20 0 11 -4 20 -10 20 -5
0 -10 -9 -10 -20z"/>
<path d="M1680 3419 c0 -5 5 -7 10 -4 6 3 10 8 10 11 0 2 -4 4 -10 4 -5 0 -10
-5 -10 -11z"/>
<path d="M1741 3424 c0 -11 3 -14 6 -6 3 7 2 16 -1 19 -3 4 -6 -2 -5 -13z"/>
<path d="M1790 2363 c0 -5 5 -15 10 -23 8 -12 10 -11 10 8 0 12 -4 22 -10 22
-5 0 -10 -3 -10 -7z"/>
<path d="M2081 2338 c0 -7 4 -22 9 -33 7 -17 9 -15 9 13 1 17 -3 32 -9 32 -5
0 -10 -6 -9 -12z"/>
<path d="M1403 1653 c9 -2 23 -2 30 0 6 3 -1 5 -18 5 -16 0 -22 -2 -12 -5z"/>
<path d="M1398 1603 c6 -2 18 -2 25 0 6 3 1 5 -13 5 -14 0 -19 -2 -12 -5z"/>
<path d="M1410 1459 c12 -8 9 -9 -12 -5 -15 3 -30 2 -33 -4 -4 -6 10 -10 34
-10 41 0 54 13 25 24 -24 9 -31 7 -14 -5z"/>
<path d="M1112 1039 c1 -43 2 -47 5 -16 5 42 5 43 39 21 23 -15 26 -15 43 0
26 23 31 20 31 -20 0 -19 4 -33 9 -30 5 4 8 14 6 24 -2 9 -4 30 -4 45 l-1 28
-30 -21 c-32 -23 -39 -22 -77 6 l-23 16 2 -53z"/>
<path d="M1456 1044 c-18 -25 -18 -25 3 -12 12 7 21 18 21 25 0 18 -2 16 -24
-13z"/>
<path d="M1812 1057 c1 -58 3 -65 20 -64 10 1 26 9 35 19 15 17 15 18 0 18
-12 0 -17 9 -17 28 0 16 -9 37 -20 47 -19 17 -19 16 -18 -48z"/>
<path d="M1770 1019 c0 -5 5 -7 10 -4 6 3 10 8 10 11 0 2 -4 4 -10 4 -5 0 -10
-5 -10 -11z"/>
<path d="M2377 1073 c-4 -3 -7 -21 -7 -39 0 -38 19 -48 85 -42 44 4 61 24 51
61 -6 25 -10 27 -65 27 -32 0 -61 -3 -64 -7z m72 -44 c-22 -14 -29 -11 -29 11
0 18 3 19 21 9 17 -9 19 -13 8 -20z"/>
<path d="M2100 1056 c-18 -22 -5 -48 22 -44 17 2 23 10 23 28 0 29 -26 38 -45
16z"/>
<path d="M2050 996 c0 -2 8 -10 18 -17 15 -13 16 -12 3 4 -13 16 -21 21 -21
13z"/>
<path d="M1147 793 c-14 -13 -7 -25 8 -13 8 7 22 10 30 6 8 -3 15 -1 15 4 0
11 -43 14 -53 3z"/>
<path d="M1193 751 c18 -6 18 -8 2 -21 -14 -11 -20 -12 -38 -1 -21 13 -21 12
-5 -5 14 -15 21 -16 43 -6 31 15 33 42 3 41 -20 0 -21 -1 -5 -8z"/>
<path d="M4937 2699 c-32 -5 -78 -17 -102 -28 -43 -19 -44 -19 -50 0 -9 27
-27 24 -20 -4 5 -20 -2 -29 -48 -59 -30 -20 -71 -57 -92 -82 -20 -25 -42 -43
-48 -39 -5 3 -7 2 -4 -4 7 -12 -32 -95 -50 -106 -18 -11 -16 -28 6 -54 22 -27
31 -29 31 -8 0 21 46 112 78 153 23 31 28 33 66 26 23 -3 47 -11 53 -16 13
-11 64 -2 73 12 3 4 10 2 17 -5 9 -10 8 -19 -2 -39 -8 -15 -12 -33 -8 -42 5
-13 8 -12 26 3 20 18 20 17 14 -6 -7 -29 13 -81 42 -108 19 -18 20 -22 6 -33
-8 -7 -15 -23 -15 -36 l0 -24 -20 20 c-37 37 -81 22 -77 -27 1 -17 5 -29 10
-26 4 2 7 -3 7 -12 0 -12 -6 -15 -19 -10 -12 4 -24 -1 -33 -12 -12 -17 -51
-43 -63 -43 -3 0 -1 9 5 21 9 15 8 24 -1 35 -10 12 -10 17 -1 23 14 8 6 41
-10 41 -5 0 -6 5 -3 10 4 6 -5 10 -19 10 -16 0 -26 6 -26 15 0 8 5 15 11 15 6
0 8 9 3 23 -15 47 -53 47 -68 0 -5 -16 -2 -23 15 -28 19 -6 20 -8 5 -23 -14
-14 -19 -12 -53 25 -21 23 -46 53 -56 67 -23 33 -52 36 -41 4 5 -13 7 -33 7
-45 -9 -142 -4 -201 22 -278 32 -98 58 -143 124 -217 46 -51 51 -61 51 -103
l0 -48 75 7 c51 5 100 2 158 -9 72 -13 95 -14 153 -3 38 7 113 12 167 10 l97
-2 0 50 c0 47 3 54 51 103 87 90 149 245 149 373 0 53 -1 55 -22 49 -21 -6
-21 -4 4 19 17 15 26 31 22 40 -7 18 -46 21 -75 5 -16 -8 -20 -7 -18 3 4 35
-3 40 -16 10 -16 -36 -40 -39 -40 -5 0 10 -8 27 -17 36 -9 10 -15 24 -11 32 4
11 1 13 -11 9 -15 -6 -20 4 -17 31 0 6 -10 23 -24 39 l-24 28 -29 -24 c-21
-18 -27 -29 -21 -43 4 -11 5 -30 2 -42 -6 -27 12 -30 41 -8 11 8 25 15 30 15
16 -1 -56 -60 -72 -60 -23 0 -61 -53 -55 -77 4 -16 1 -23 -10 -23 -8 0 -17 -7
-21 -15 -6 -17 9 -21 19 -5 7 12 25 13 25 3 0 -5 -15 -19 -33 -32 -18 -14 -34
-33 -34 -43 -2 -20 13 -24 20 -5 3 6 5 -6 5 -29 -1 -22 2 -46 7 -53 9 -16 55
-6 72 15 7 9 14 11 17 5 4 -6 23 -5 54 5 26 8 63 17 82 20 19 2 39 9 45 16 7
8 1 9 -22 5 -33 -7 -37 -3 -34 33 1 8 -10 28 -25 43 -29 31 -27 45 4 26 11 -7
28 -9 38 -5 14 5 15 9 6 15 -16 9 -6 37 16 46 10 4 24 -4 39 -22 21 -25 23
-34 18 -98 -11 -120 -41 -205 -98 -279 -29 -36 -31 -37 -38 -17 -7 18 -14 20
-52 15 -33 -5 -46 -2 -57 10 -12 15 -11 18 8 23 12 3 22 9 22 14 0 15 -39 10
-48 -6 -7 -13 -10 -12 -20 9 -9 19 -8 25 4 30 8 3 14 1 14 -4 0 -13 47 -13 55
1 8 13 -23 49 -42 49 -8 0 -11 5 -8 10 3 6 -1 10 -9 10 -9 0 -16 -7 -16 -15 0
-8 -4 -15 -10 -15 -5 0 -10 4 -10 9 0 6 -12 6 -30 1 -36 -10 -40 2 -6 18 22
10 23 14 13 36 -6 13 -15 22 -19 20 -5 -3 -8 -1 -8 5 0 5 5 13 10 16 6 4 4 12
-5 21 -9 9 -15 34 -15 60 0 24 -1 47 -2 52 -2 4 7 8 20 10 23 4 28 21 13 50
-5 9 -12 25 -15 35 -4 12 -13 16 -31 13 -35 -6 -33 20 5 73 26 35 29 47 24 81
-7 44 -19 58 -28 34 -8 -20 -26 -8 -26 17 0 11 5 17 10 14 6 -4 10 6 11 22 2
47 -2 67 -18 86 -10 10 -11 17 -5 17 6 0 16 -9 22 -20 6 -11 16 -18 22 -14 7
4 6 9 -3 15 -23 14 -2 10 63 -12 99 -33 174 -94 230 -186 19 -31 38 -51 47
-50 9 1 18 -2 20 -8 2 -5 7 -21 12 -34 6 -16 6 -28 -2 -38 -11 -12 -9 -12 15
-2 22 10 24 14 11 21 -9 6 -15 23 -15 44 0 91 -120 233 -251 298 -63 31 -86
37 -154 40 -44 2 -106 0 -138 -5z m57 -55 c14 -5 14 -8 -1 -31 -14 -21 -14
-26 -2 -33 7 -5 24 -7 36 -3 14 3 23 1 23 -6 0 -6 -7 -11 -16 -11 -13 0 -15
-7 -11 -35 5 -29 3 -35 -12 -35 -11 0 -26 -11 -34 -24 -15 -22 -14 -24 10 -35
28 -13 29 -12 54 32 10 18 12 18 29 2 18 -17 18 -18 -4 -39 -17 -17 -18 -18
-1 -6 20 15 20 15 2 -6 -15 -18 -24 -20 -50 -14 -55 12 -92 34 -93 55 -1 32
-14 55 -57 94 -31 29 -38 41 -30 54 7 15 11 12 21 -15 6 -18 21 -39 33 -46 19
-12 21 -12 16 1 -7 19 28 67 49 67 8 0 14 5 14 11 0 5 5 7 10 4 6 -3 10 -2 10
4 0 5 -8 12 -17 14 -10 3 -13 5 -6 6 6 0 18 -2 27 -5z m36 -44 c0 -5 -7 -10
-16 -10 -8 0 -12 5 -9 10 3 6 10 10 16 10 5 0 9 -4 9 -10z m241 -199 c-8 -5
-10 -14 -6 -21 5 -9 4 -11 -3 -6 -18 11 -14 36 6 36 13 0 14 -2 3 -9z m-225
-143 c1 -10 -2 -20 -7 -24 -5 -3 -9 2 -9 10 0 9 -7 16 -16 16 -8 0 -12 5 -9
11 10 15 38 6 41 -13z m72 -6 c2 -7 -3 -12 -12 -12 -9 0 -16 7 -16 16 0 17 22
14 28 -4z m251 5 c-2 -1 -13 -9 -24 -17 -19 -14 -19 -14 -6 3 7 9 18 17 24 17
6 0 8 -1 6 -3z m-809 -57 c0 -5 7 -10 14 -10 24 0 74 -118 77 -178 2 -29 -2
-57 -8 -63 -6 -6 -9 -18 -6 -26 11 -28 -43 14 -56 44 -32 71 -54 243 -31 243
6 0 10 -4 10 -10z m330 -42 c0 -16 -3 -19 -11 -11 -6 6 -8 16 -5 22 11 17 16
13 16 -11z m190 -156 c0 -2 -4 0 -10 3 -6 4 -10 -5 -10 -19 0 -14 -4 -26 -9
-26 -15 0 -41 42 -41 67 0 27 -8 29 -38 7 -20 -14 -23 -14 -28 1 -4 9 1 24 11
35 14 16 15 23 6 34 -13 15 -9 28 17 58 13 16 18 10 58 -70 24 -48 44 -88 44
-90z m-326 75 c-11 -6 -22 -15 -26 -21 -4 -6 -11 -7 -15 -2 -10 10 36 48 49
40 6 -4 3 -11 -8 -17z m0 -42 c-35 -26 -47 -15 -17 17 11 13 20 15 27 8 7 -7
4 -15 -10 -25z m24 -65 c3 -48 -2 -50 -22 -8 -13 25 -14 33 -4 40 21 13 23 10
26 -32z m82 19 c0 -5 -4 -9 -10 -9 -5 0 -10 7 -10 16 0 8 5 12 10 9 6 -3 10
-10 10 -16z m90 -11 c0 -16 -3 -19 -11 -11 -6 6 -8 16 -5 22 11 17 16 13 16
-11z m-107 -24 c4 -1 14 -2 23 -3 8 0 13 -5 9 -10 -9 -16 -42 -8 -55 12 -9 15
-9 17 2 11 7 -5 16 -9 21 -10z m257 -19 c0 -8 -4 -15 -10 -15 -5 0 -10 7 -10
15 0 8 5 15 10 15 6 0 10 -7 10 -15z m-455 -55 c3 -5 1 -10 -4 -10 -6 0 -11 5
-11 10 0 6 2 10 4 10 3 0 8 -4 11 -10z m115 -65 c0 -7 -8 -19 -17 -24 -16 -9
-16 -12 -3 -21 12 -7 18 -3 29 20 21 42 57 41 76 -2 l14 -33 1 33 c0 28 3 32
28 32 15 0 33 -5 40 -12 9 -9 12 -9 12 0 0 8 19 12 60 11 54 -1 60 -4 69 -28
9 -26 9 -26 10 7 1 21 6 32 16 32 12 0 15 -15 15 -74 0 -82 -11 -101 -34 -59
-14 26 -15 27 -16 6 0 -15 -6 -23 -17 -23 -15 0 -18 9 -18 45 0 58 -19 59 -23
0 -3 -37 -6 -45 -23 -45 -18 0 -20 6 -18 53 2 28 -1 52 -6 52 -13 0 -25 -54
-18 -86 4 -22 2 -29 -11 -29 -9 0 -16 7 -16 15 0 8 -4 15 -10 15 -5 0 -10 -4
-10 -10 0 -5 -7 -10 -15 -10 -10 0 -15 10 -16 28 l-1 27 -9 -27 c-18 -48 -69
-46 -84 3 -10 29 -30 17 -30 -17 -1 -19 -6 -30 -18 -32 -15 -3 -17 7 -17 82
l0 86 30 0 c20 0 30 -5 30 -15z m550 -5 c0 -11 -7 -20 -15 -20 -20 0 -19 -17
3 -29 16 -10 16 -12 0 -25 -22 -16 -23 -36 -3 -36 8 0 15 -9 15 -21 0 -17 -5
-20 -32 -17 -33 3 -33 4 -36 61 -4 73 -22 75 -22 2 0 -48 -2 -55 -20 -55 -17
0 -20 7 -20 49 0 28 -4 53 -10 56 -6 4 -10 -15 -10 -49 0 -49 -2 -56 -20 -56
-18 0 -20 7 -20 74 l0 74 60 -3 c33 -2 62 0 65 5 4 6 19 10 36 10 22 0 29 -5
29 -20z"/>
<path d="M4973 2541 c-10 -16 -8 -20 12 -29 21 -10 23 -9 20 10 -7 32 -19 40
-32 19z"/>
<path d="M5005 2071 c-2 -5 4 -11 15 -14 11 -3 20 -2 20 3 0 12 -28 21 -35 11z"/>
<path d="M4800 1751 c0 -23 5 -41 10 -41 6 0 10 15 10 34 0 19 -4 38 -10 41
-6 4 -10 -10 -10 -34z"/>
<path d="M4890 1764 c0 -8 5 -12 10 -9 6 3 10 10 10 16 0 5 -4 9 -10 9 -5 0
-10 -7 -10 -16z"/>
<path d="M5100 2605 c-10 -12 -10 -18 1 -32 10 -11 10 -14 2 -9 -9 5 -13 1
-13 -13 0 -11 5 -23 11 -27 6 -3 17 -20 25 -38 7 -17 13 -24 14 -15 0 9 7 19
15 23 8 3 15 12 15 21 0 8 5 15 11 15 8 0 8 5 -1 15 -7 8 -9 15 -5 15 4 0 2 7
-5 15 -7 8 -9 15 -4 15 9 1 -36 29 -47 30 -4 0 -12 -7 -19 -15z"/>
<path d="M5415 2360 c-4 -6 -3 -16 3 -22 6 -6 12 -6 17 2 4 6 3 16 -3 22 -6 6
-12 6 -17 -2z"/>
<path d="M5323 2042 c-65 -27 -69 -34 -42 -79 13 -21 33 -58 44 -82 l21 -45
22 31 c20 29 21 33 7 59 -17 33 -20 104 -5 104 6 0 10 7 10 15 0 18 -4 18 -57
-3z"/>
<path d="M3927 1043 c-9 -2 -15 -8 -12 -12 2 -5 -7 -6 -20 -3 -36 6 -98 -38
-129 -91 -53 -90 -43 -193 26 -271 69 -80 27 -76 885 -79 l762 -2 -25 33 c-86
112 -93 253 -19 376 l34 56 -742 -1 c-408 -1 -750 -3 -760 -6z m262 -159 c30
-38 28 -98 -4 -129 -19 -20 -34 -25 -75 -25 l-50 0 0 90 0 90 54 0 c47 0 57
-4 75 -26z m571 -64 c0 -83 -1 -90 -20 -90 -19 0 -20 7 -20 90 0 83 1 90 20
90 19 0 20 -7 20 -90z m440 1 l0 -90 -52 2 c-47 2 -54 5 -66 30 -26 53 5 115
51 103 21 -5 24 -3 19 19 -4 21 -1 25 22 25 l26 0 0 -89z m-861 23 c12 -15 21
-34 21 -44 0 -10 -9 -29 -21 -44 -26 -33 -71 -35 -93 -4 -52 74 38 162 93 92z
m77 -11 l7 -38 12 35 c8 23 18 35 30 35 13 0 22 -11 28 -35 10 -36 11 -35 21
13 4 15 13 27 21 27 19 0 19 -8 -2 -81 -15 -49 -22 -59 -37 -57 -13 2 -23 15
-29 38 -10 36 -11 35 -21 -12 -11 -50 -40 -35 -60 30 -10 31 -21 63 -23 70 -3
7 4 12 20 12 22 0 27 -6 33 -37z m194 25 c0 -9 3 -9 12 0 18 18 46 14 58 -7 5
-11 10 -43 10 -71 0 -48 -2 -51 -22 -48 -19 2 -22 8 -20 35 2 18 1 42 -3 53
-11 36 -35 4 -35 -46 0 -37 -3 -44 -20 -44 -18 0 -20 7 -20 70 0 63 2 70 20
70 11 0 20 -5 20 -12z m280 -8 c42 -42 15 -120 -41 -120 -30 0 -69 40 -69 70
0 28 39 70 66 70 13 0 33 -9 44 -20z m141 10 c15 -9 19 -22 19 -70 l0 -59 -51
2 c-84 3 -96 56 -19 82 23 8 30 14 21 19 -7 5 -18 3 -24 -3 -13 -13 -47 -15
-47 -2 0 14 41 41 63 41 10 0 27 -5 38 -10z"/>
<path d="M4110 825 c0 -48 2 -55 20 -55 38 0 41 87 3 101 -22 8 -23 6 -23 -46z"/>
<path d="M5124 826 c-8 -22 -1 -59 14 -64 8 -2 12 9 12 37 0 40 -15 55 -26 27z"/>
<path d="M4275 821 c-9 -28 3 -61 21 -61 11 0 14 9 12 37 -3 41 -23 55 -33 24z"/>
<path d="M4834 827 c-9 -25 0 -62 16 -62 10 0 15 10 15 34 0 36 -21 54 -31 28z"/>
<path d="M4975 779 c-4 -6 -4 -13 -1 -16 8 -8 36 5 36 17 0 13 -27 13 -35 -1z"/>
<path d="M5600 905 l0 -85 -41 0 c-22 0 -39 -4 -37 -8 11 -26 145 -191 153
-189 12 4 145 176 145 188 0 5 -16 9 -35 9 l-35 0 0 85 0 85 -75 0 -75 0 0
-85z"/>
</g>
</svg>
